<svg width="24" height="24" viewBox="0 0 24 24" fill="none" xmlns="http://www.w3.org/2000/svg">
<path d="M17.75 18.8001C17.75 19.2143 18.0858 19.5501 18.5 19.5501C18.9142 19.5501 19.25 19.2143 19.25 18.8001H17.75ZM4.75002 18.8001C4.75002 19.2143 5.0858 19.5501 5.50002 19.5501C5.91423 19.5501 6.25002 19.2143 6.25002 18.8001H4.75002ZM12 13.05C14.5681 13.05 16.65 10.9681 16.65 8.4H15.15C15.15 10.1397 13.7397 11.55 12 11.55V13.05ZM16.65 8.4C16.65 5.83188 14.5681 3.75 12 3.75V5.25C13.7397 5.25 15.15 6.6603 15.15 8.4H16.65ZM12 3.75C9.43186 3.75 7.34998 5.83188 7.34998 8.4H8.84998C8.84998 6.6603 10.2603 5.25 12 5.25V3.75ZM7.34998 8.4C7.34998 10.9681 9.43186 13.05 12 13.05V11.55C10.2603 11.55 8.84998 10.1397 8.84998 8.4H7.34998ZM19.25 18.8001C19.25 14.796 16.0041 11.55 12 11.55V13.05C15.1756 13.05 17.75 15.6244 17.75 18.8001H19.25ZM12 11.55C7.9959 11.55 4.75002 14.796 4.75002 18.8001H6.25002C6.25002 15.6244 8.82436 13.05 12 13.05V11.55Z" fill="white"/>
</svg>
